<?xml version="1.0" encoding="UTF-8" standalone="no"?>
<svg
   xmlns:dc="http://purl.org/dc/elements/1.1/"
   xmlns:cc="http://creativecommons.org/ns#"
   xmlns:rdf="http://www.w3.org/1999/02/22-rdf-syntax-ns#"
   xmlns:svg="http://www.w3.org/2000/svg"
   xmlns="http://www.w3.org/2000/svg"
   xmlns:sodipodi="http://sodipodi.sourceforge.net/DTD/sodipodi-0.dtd"
   xmlns:inkscape="http://www.inkscape.org/namespaces/inkscape"
   version="1.0"
   width="24.152037"
   height="19.629082"
   id="svg2"
   inkscape:version="0.48.1 "
   sodipodi:docname="ic_aircraft.svg"
   inkscape:export-filename="C:\Users\Xperimental\eclipse\vfrmap\images\ic_aircraft.png"
   inkscape:export-xdpi="238.48921"
   inkscape:export-ydpi="238.48921">
  <metadata
     id="metadata17">
    <rdf:RDF>
      <cc:Work
         rdf:about="">
        <dc:format>image/svg+xml</dc:format>
        <dc:type
           rdf:resource="http://purl.org/dc/dcmitype/StillImage" />
        <dc:title></dc:title>
      </cc:Work>
    </rdf:RDF>
  </metadata>
  <sodipodi:namedview
     pagecolor="#ffffff"
     bordercolor="#666666"
     borderopacity="1"
     objecttolerance="10"
     gridtolerance="10"
     guidetolerance="10"
     inkscape:pageopacity="0"
     inkscape:pageshadow="2"
     inkscape:window-width="1386"
     inkscape:window-height="884"
     id="namedview15"
     showgrid="false"
     fit-margin-top="0"
     fit-margin-left="0"
     fit-margin-right="0"
     fit-margin-bottom="0"
     inkscape:zoom="29.1"
     inkscape:cx="12.206832"
     inkscape:cy="7.5807408"
     inkscape:window-x="0"
     inkscape:window-y="0"
     inkscape:window-maximized="0"
     inkscape:current-layer="svg2" />
  <defs
     id="defs4">
    <filter
       id="filter"
       color-interpolation-filters="sRGB">
      <feGaussianBlur
         stdDeviation="0.4858"
         id="feGaussianBlur7" />
    </filter>
  </defs>
  <g
     id="g2998"
     transform="translate(1.9335738,-3.0102186)">
    <path
       transform="matrix(0.68631395,-0.68631395,0.68631395,0.68631395,-4.4367703,11.876648)"
       d="m 16.277875,5.5475381 c -0.06941,-0.069412 -0.158184,-0.062726 -0.675973,0.176957 -0.06112,0.02829 -0.284901,0.1858039 -0.284901,0.1858039 1e-6,7e-7 -0.116415,-0.1057979 -0.145104,-0.1344868 -0.05546,-0.055465 -0.17993,-0.081023 -0.277822,-0.058395 -0.303714,0.0702 -1.514972,0.91686 -1.988991,1.3908783 -0.294161,0.2941613 -0.495114,0.4458142 -0.576878,0.4353128 -0.069,-0.00886 -0.365852,-0.120312 -0.658279,-0.247739 C 11.153951,7.0710292 11.05245,6.986809 8.2298918,4.4504077 5.9946875,2.441814 5.2733964,1.8272176 5.1101488,1.7907508 4.6575089,1.6896405 4.2370068,2.0813096 3.7121922,3.0931508 L 3.4414488,3.6151735 c 0,0 5.4502604,7.6126705 5.4502604,7.6126705 L 5.4251309,15.791552 5.2393275,15.687148 C 5.1374854,15.629472 4.5427357,15.152567 3.9174622,14.627178 3.2921867,14.101791 2.7214584,13.66599 2.6486833,13.659226 c -0.292564,-0.02719 -1.212769,1.144292 -1.0369647,1.320096 0.2774767,0.277477 1.1654392,1.44136 1.1749911,1.539522 0.00682,0.07008 0.7697063,1.070533 1.1095168,1.410343 0.3398104,0.339811 1.34026,1.102698 1.4103436,1.109517 0.098161,0.0096 1.2620446,0.897515 1.5395222,1.174992 C 7.0218967,20.3895 8.1933796,19.469295 8.1661875,19.17673 8.1594242,19.103955 7.7236233,18.533228 7.1982364,17.907952 6.6728477,17.282679 6.1959429,16.687929 6.1382658,16.586086 L 6.0338622,16.400283 10.597567,12.933704 c 0,0 7.612673,5.450261 7.612673,5.450262 l 0.522022,-0.270745 c 1.011842,-0.524814 1.403511,-0.945316 1.3024,-1.397956 -0.03647,-0.163248 -0.651061,-0.884538 -2.659656,-3.119743 -2.536401,-2.82256 -2.620621,-2.924059 -2.845461,-3.440036 -0.127427,-0.2924264 -0.238876,-0.5892784 -0.24774,-0.6582785 -0.0105,-0.081763 0.141154,-0.2827153 0.435314,-0.5768777 0.474019,-0.4740181 1.320678,-1.6852768 1.390878,-1.9889913 0.02263,-0.097892 -0.0029,-0.2223558 -0.0584,-0.2778216 -0.02869,-0.02869 -0.132718,-0.1433353 -0.132718,-0.1433353 0,0 0.157515,-0.2237852 0.185804,-0.2848999 0.239682,-0.5177901 0.244601,-0.6083297 0.175187,-0.6777436 z"
       id="path11"
       inkscape:connector-curvature="0"
       style="fill-opacity:0.2;filter:url(#filter)" />
    <path
       d="m 8.6109394,3.0102186 c -0.095275,-1.3e-6 -0.1516136,0.065514 -0.3424817,0.5853778 -0.022525,0.061357 -0.068012,0.3230513 -0.068012,0.3230513 1.2e-6,-2e-7 -0.1525078,0.00729 -0.191887,0.00729 C 7.9324296,3.925931 7.8294633,3.9938157 7.7778079,4.0765296 7.6175439,4.333152 7.3673152,5.7455298 7.3673148,6.396181 7.367315,6.7999548 7.3334796,7.0419532 7.2701566,7.0908617 7.2167202,7.1321366 6.9364955,7.2593792 6.6483438,7.372621 6.1399117,7.5724327 6.0124489,7.5842925 2.334519,7.7806873 c -2.91257778,0.155526 -3.829416,0.228752 -3.9664828,0.3157635 -0.3800464,0.2412597 -0.3998349,0.7986641 -0.065582,1.8532924 l 0.1724565,0.5440868 c 0,0 8.9652709,1.484091 8.9652709,1.484091 l 0.7529756,5.511298 -0.1991734,0.05587 c -0.1094795,0.03031 -0.8449711,0.111191 -1.6346868,0.179743 -0.7897157,0.06855 -1.4805108,0.161157 -1.5350996,0.206461 -0.2194516,0.18213 -0.046997,1.617684 0.1943169,1.617684 0.3808725,0 1.7890827,0.189368 1.8630082,0.250183 0.052778,0.04342 1.2629819,0.206461 1.729415,0.206461 0.4664336,0 1.6766365,-0.163042 1.7294155,-0.206462 0.07396,-0.06078 1.482136,-0.250181 1.863009,-0.250182 0.241314,0 0.413769,-1.435555 0.194316,-1.617684 -0.05459,-0.0453 -0.745383,-0.137906 -1.535099,-0.206461 -0.789715,-0.06855 -1.5252068,-0.149431 -1.6346876,-0.179743 L 9.0287187,17.489219 9.7816938,11.97792 c 0,0 8.9652732,-1.484092 8.9652732,-1.484091 L 18.919422,9.9497415 C 19.253676,8.895113 19.233888,8.3377087 18.853841,8.0964495 18.716774,8.0094379 17.799938,7.9362109 14.887359,7.7806853 11.209429,7.5842904 11.081967,7.5724312 10.573536,7.3726215 10.285384,7.2593794 10.005161,7.1321348 9.9517219,7.0908625 9.8883998,7.0419531 9.8545664,6.7999551 9.8545648,6.3961813 9.8545654,5.7455302 9.6043355,4.3331525 9.4440713,4.0765298 9.3924179,3.9938139 9.2894751,3.9259142 9.2133177,3.9259377 c -0.039381,0 -0.1894592,-0.00729 -0.1894592,-0.00729 0,0 -0.045482,-0.2616916 -0.068011,-0.3230507 C 8.7649781,3.0757366 8.7062155,3.010222 8.610936,3.0102221 z"
       id="path13"
       inkscape:connector-curvature="0"
       style="fill:#505050" />
  </g>
</svg>
