<?xml version="1.0" encoding="UTF-8" standalone="no"?>
<svg
   xmlns:dc="http://purl.org/dc/elements/1.1/"
   xmlns:cc="http://creativecommons.org/ns#"
   xmlns:rdf="http://www.w3.org/1999/02/22-rdf-syntax-ns#"
   xmlns:svg="http://www.w3.org/2000/svg"
   xmlns="http://www.w3.org/2000/svg"
   xmlns:sodipodi="http://sodipodi.sourceforge.net/DTD/sodipodi-0.dtd"
   xmlns:inkscape="http://www.inkscape.org/namespaces/inkscape"
   version="1.0"
   width="64"
   height="64"
   id="svg2"
   inkscape:version="0.48.1 "
   sodipodi:docname="ic_aircraft.svg"
   inkscape:export-filename="C:\Users\Xperimental\eclipse\vfrmap\images\ic_aircraft.png"
   inkscape:export-xdpi="90"
   inkscape:export-ydpi="90">
  <metadata
     id="metadata17">
    <rdf:RDF>
      <cc:Work
         rdf:about="">
        <dc:format>image/svg+xml</dc:format>
        <dc:type
           rdf:resource="http://purl.org/dc/dcmitype/StillImage" />
        <dc:title></dc:title>
      </cc:Work>
    </rdf:RDF>
  </metadata>
  <sodipodi:namedview
     pagecolor="#ffffff"
     bordercolor="#666666"
     borderopacity="1"
     objecttolerance="10"
     gridtolerance="10"
     guidetolerance="10"
     inkscape:pageopacity="0"
     inkscape:pageshadow="2"
     inkscape:window-width="1596"
     inkscape:window-height="884"
     id="namedview15"
     showgrid="false"
     fit-margin-top="0"
     fit-margin-left="0"
     fit-margin-right="0"
     fit-margin-bottom="0"
     inkscape:zoom="7.275"
     inkscape:cx="54.447486"
     inkscape:cy="22.985167"
     inkscape:window-x="225"
     inkscape:window-y="21"
     inkscape:window-maximized="0"
     inkscape:current-layer="svg2"
     showguides="true"
     inkscape:guide-bbox="true"
     showborder="true"
     inkscape:showpageshadow="true">
    <sodipodi:guide
       orientation="1,0"
       position="32.002049,50.104955"
       id="guide3760" />
    <sodipodi:guide
       orientation="0,1"
       position="-1.2886598,31.993127"
       id="guide3762" />
  </sodipodi:namedview>
  <defs
     id="defs4">
    <filter
       id="filter"
       color-interpolation-filters="sRGB">
      <feGaussianBlur
         stdDeviation="0.4858"
         id="feGaussianBlur7" />
    </filter>
  </defs>
  <g
     id="g3756"
     transform="matrix(2.5218423,0,0,2.5218423,5.4891775,17.21765)"
     inkscape:transform-center-y="9.8826934"
     inkscape:transform-center-x="-3.8621352">
    <path
       transform="matrix(0.68631395,-0.68631395,0.68631395,0.68631395,-2.5031965,8.8664294)"
       d="m 16.277875,5.5475381 c -0.06941,-0.069412 -0.158184,-0.062726 -0.675973,0.176957 -0.06112,0.02829 -0.284901,0.1858039 -0.284901,0.1858039 1e-6,7e-7 -0.116415,-0.1057979 -0.145104,-0.1344868 -0.05546,-0.055465 -0.17993,-0.081023 -0.277822,-0.058395 -0.303714,0.0702 -1.514972,0.91686 -1.988991,1.3908783 -0.294161,0.2941613 -0.495114,0.4458142 -0.576878,0.4353128 -0.069,-0.00886 -0.365852,-0.120312 -0.658279,-0.247739 C 11.153951,7.0710292 11.05245,6.986809 8.2298918,4.4504077 5.9946875,2.441814 5.2733964,1.8272176 5.1101488,1.7907508 4.6575089,1.6896405 4.2370068,2.0813096 3.7121922,3.0931508 L 3.4414488,3.6151735 c 0,0 5.4502604,7.6126705 5.4502604,7.6126705 L 5.4251309,15.791552 5.2393275,15.687148 C 5.1374854,15.629472 4.5427357,15.152567 3.9174622,14.627178 3.2921867,14.101791 2.7214584,13.66599 2.6486833,13.659226 c -0.292564,-0.02719 -1.212769,1.144292 -1.0369647,1.320096 0.2774767,0.277477 1.1654392,1.44136 1.1749911,1.539522 0.00682,0.07008 0.7697063,1.070533 1.1095168,1.410343 0.3398104,0.339811 1.34026,1.102698 1.4103436,1.109517 0.098161,0.0096 1.2620446,0.897515 1.5395222,1.174992 C 7.0218967,20.3895 8.1933796,19.469295 8.1661875,19.17673 8.1594242,19.103955 7.7236233,18.533228 7.1982364,17.907952 6.6728477,17.282679 6.1959429,16.687929 6.1382658,16.586086 L 6.0338622,16.400283 10.597567,12.933704 c 0,0 7.612673,5.450261 7.612673,5.450262 l 0.522022,-0.270745 c 1.011842,-0.524814 1.403511,-0.945316 1.3024,-1.397956 -0.03647,-0.163248 -0.651061,-0.884538 -2.659656,-3.119743 -2.536401,-2.82256 -2.620621,-2.924059 -2.845461,-3.440036 -0.127427,-0.2924264 -0.238876,-0.5892784 -0.24774,-0.6582785 -0.0105,-0.081763 0.141154,-0.2827153 0.435314,-0.5768777 0.474019,-0.4740181 1.320678,-1.6852768 1.390878,-1.9889913 0.02263,-0.097892 -0.0029,-0.2223558 -0.0584,-0.2778216 -0.02869,-0.02869 -0.132718,-0.1433353 -0.132718,-0.1433353 0,0 0.157515,-0.2237852 0.185804,-0.2848999 0.239682,-0.5177901 0.244601,-0.6083297 0.175187,-0.6777436 z"
       id="path11"
       inkscape:connector-curvature="0"
       style="fill-opacity:0.2;filter:url(#filter)" />
    <path
       d="m 10.544513,0 c -0.09528,-1.3e-6 -0.151613,0.065514 -0.342482,0.5853778 -0.02252,0.061357 -0.06801,0.3230513 -0.06801,0.3230513 2e-6,-2e-7 -0.1525073,0.00729 -0.1918865,0.00729 -0.076129,-6.7e-6 -0.1790954,0.067878 -0.2307508,0.1505919 -0.160264,0.2566224 -0.4104927,1.6690002 -0.4104931,2.3196514 2e-7,0.4037738 -0.033835,0.6457722 -0.097158,0.6946807 C 9.150294,4.121918 8.8700693,4.2491606 8.5819176,4.3624024 8.0734855,4.5622141 7.9460227,4.5740739 4.2680928,4.7704687 1.355515,4.9259947 0.4386768,4.9992207 0.30161,5.0862322 -0.0784364,5.3274919 -0.0982249,5.8848963 0.236028,6.9395246 l 0.1724565,0.5440868 c 0,0 8.9652709,1.484091 8.9652709,1.484091 L 10.126731,14.479 9.9275576,14.53487 c -0.1094795,0.03031 -0.8449711,0.111191 -1.6346868,0.179743 -0.7897157,0.06855 -1.4805108,0.161157 -1.5350996,0.206461 -0.2194516,0.18213 -0.046997,1.617684 0.1943169,1.617684 0.3808725,0 1.7890827,0.189368 1.8630082,0.250183 0.052778,0.04342 1.2629817,0.206461 1.7294147,0.206461 0.466434,0 1.676637,-0.163042 1.729416,-0.206462 0.07396,-0.06078 1.482136,-0.250181 1.863009,-0.250182 0.241314,0 0.413769,-1.435555 0.194316,-1.617684 -0.05459,-0.0453 -0.745383,-0.137906 -1.535099,-0.206461 -0.789715,-0.06855 -1.525207,-0.149431 -1.634688,-0.179743 L 10.962293,14.479 11.715268,8.9677014 c 0,0 8.965273,-1.484092 8.965273,-1.484091 L 20.852996,6.9395229 C 21.18725,5.8848944 21.167462,5.3274901 20.787415,5.0862309 20.650348,4.9992193 19.733512,4.9259923 16.820933,4.7704667 13.143003,4.5740718 13.015541,4.5622126 12.50711,4.3624029 12.218958,4.2491608 11.938735,4.1219162 11.885296,4.0806439 c -0.06332,-0.048909 -0.09716,-0.2909074 -0.09716,-0.6946812 0,-0.6506511 -0.25023,-2.0630288 -0.410494,-2.3196515 -0.05165,-0.0827159 -0.154596,-0.1506156 -0.230754,-0.1505921 -0.03938,0 -0.189459,-0.00729 -0.189459,-0.00729 0,0 -0.04548,-0.2616916 -0.06801,-0.3230507 C 10.698552,0.065518 10.639789,3.4e-6 10.54451,3.5e-6 z"
       id="path13"
       inkscape:connector-curvature="0"
       style="fill:#ff0000;fill-opacity:1;stroke:#00ff00;stroke-width:0.125;stroke-opacity:1" />
  </g>
</svg>
